<svg width="125" height="125" viewBox="0 0 125 125" fill="none" xmlns="http://www.w3.org/2000/svg">
<g clip-path="url(#clip0_1479_3078)">
<path d="M40.5319 105.162C35.8523 115.095 21.747 127.269 13.3201 123.233C4.89587 119.2 5.34192 100.482 10.0214 90.5488C14.8575 80.2858 25.6025 75.965 33.7476 79.8649C42.4616 84.0369 45.0551 95.5651 40.5319 105.162V105.162Z" fill="#7373D7"/>
<path d="M42.0543 100.904C40.0591 102.808 37.8662 104.547 35.855 105.421C35.855 105.421 21.5039 114.497 14.498 94.825C14.498 94.825 12.9462 90.92 13.491 85.2175C18.8784 79.0476 27.0141 76.6411 33.7476 79.8649C40.9886 83.3318 44.2498 92.1807 42.0543 100.904Z" fill="#9292FF"/>
<path d="M93.5852 45.2813C93.5852 45.2813 78.8548 52.0415 62.3964 64.7153C50.9772 73.4987 40.1694 84.0317 32.1076 96.0376C32.1076 96.0376 22.2892 102.312 23.5739 87.3864C23.5739 87.3864 26.8138 81.4248 33.5286 72.8537C45.5808 57.4818 60.6586 43.9824 77.4179 33.871L93.5852 45.2813Z" fill="#52528C"/>
<path d="M62.3964 64.7153C55.8579 69.7447 49.0469 75.7117 42.7781 82.5574C39.7172 79.5766 36.6136 76.3447 33.5286 72.8537C38.1734 66.9295 44.4769 59.7633 52.5191 52.4583C55.4118 56.3416 58.7104 60.4952 62.3964 64.7153V64.7153Z" fill="#404077"/>
<path d="M100.045 56.4648C87.7718 61.6922 74.2351 57.3375 69.8096 46.7383C65.3841 36.1391 71.7458 23.3091 84.0186 18.0818C96.2914 12.8544 118.96 13.3195 123.386 23.9186C127.811 34.5181 112.317 51.2375 100.045 56.4648V56.4648Z" fill="#7373D7"/>
<path d="M123.778 116.265C119.838 125.683 99.3838 126.225 88.286 121.666C76.9486 117.008 71.4653 105.572 75.3211 96.3555C79.1799 87.1391 91.2315 82.9096 102.557 87.56C113.655 92.1218 127.72 106.847 123.778 116.265V116.265Z" fill="#7373D7"/>
<path d="M92.7065 116.543C88.7401 117.977 84.8779 118.054 81.3388 117.392C74.9793 111.834 72.3163 103.538 75.3212 96.3554C78.2085 89.459 85.5162 85.5033 93.5825 85.6662L93.5852 85.6689C99.5708 87.7522 103.099 92.6508 103.099 92.6508C103.099 92.6508 113.714 107.627 92.7065 116.543V116.543Z" fill="#9292FF"/>
<path d="M34.2856 32.9497C34.2856 32.9497 56.2879 75.1496 93.0625 97.2548C93.0625 97.2548 100.45 107.627 84.0905 107.047C84.0905 107.047 49.0066 90.216 22.7189 51.2228L34.2856 32.9497Z" fill="#52528C"/>
<path d="M46.1353 25.2836C52.5154 38.391 48.5068 53.4048 37.1819 58.8178C25.857 64.2307 11.5044 57.993 5.12424 44.8855C-1.25589 31.778 -1.99468 7.01069 9.3302 1.59772C20.6551 -3.81525 39.7554 12.1761 46.1353 25.2836V25.2836Z" fill="#7373D7"/>
<path d="M35.5687 104.97C35.5155 105.003 30.1971 108.29 24.6618 106.372C20.5106 104.934 17.2606 100.989 15.0017 94.6458C14.9026 94.368 14.5971 94.2227 14.3193 94.3218C14.0413 94.4206 13.8965 94.7262 13.9953 95.0042C16.5071 102.058 20.9323 108.052 28.3611 108.052C32.6309 108.052 35.96 105.987 36.1395 105.873C36.3887 105.716 36.4629 105.387 36.3056 105.137C36.1483 104.887 35.8184 104.813 35.5687 104.97V104.97Z" fill="black"/>
<path d="M123.735 107.061C120.187 98.4837 110.284 90.1589 102.76 87.0659C95.4106 84.0474 87.2235 84.6025 81.2828 88.4941C73.811 82.6783 66.5099 75.7245 59.4653 67.7097C64.746 63.4404 70.4672 59.336 76.4873 55.501C83.3423 60.0245 92.4474 60.2812 100.254 56.9567C115.943 50.2742 136.75 25.1599 115.876 16.6687C107.299 13.1799 93.2137 13.585 83.8095 17.5907C74.0757 21.7363 67.9811 30.6159 67.8769 39.4619C61.3349 44.0658 55.0288 49.2587 49.1171 54.9027C48.1604 53.6164 47.2218 52.3252 46.318 51.052C50.8899 43.3278 50.6658 33.3707 46.6155 25.0499C38.4824 8.34087 9.98006 -12.9956 1.87689 10.21C-1.45514 19.7518 -0.239851 35.0858 4.64401 45.1192C9.83102 55.7756 19.9898 61.6496 29.3712 61.2764C31.4399 63.9241 33.6232 66.5534 35.8678 69.1047C33.4295 72.0473 31.1282 75.0324 29.02 77.9884C21.3298 77.1852 13.3564 82.2117 9.53828 90.321C4.12477 101.812 4.26767 124.566 17.001 124.566C25.9767 124.566 37.1149 113.669 41.015 105.389C44.1144 98.8099 43.9905 91.3026 40.7175 85.6871C42.4048 83.7304 44.2151 81.7611 46.1088 79.8206C56.5446 89.8758 66.5134 97.0521 73.584 101.578C73.1069 110.007 79.0245 118.436 88.0828 122.159C102.435 128.056 131.385 125.56 123.735 107.061V107.061ZM84.228 18.5733C93.2738 14.7205 107.015 14.2181 115.473 17.6583C126.843 22.2828 125.19 32.1936 117.558 41.8756C112.764 47.9574 105.973 53.3594 99.8353 55.9735C93.4885 58.6765 86.4818 58.8576 80.6118 56.4695C75.8268 54.5232 72.1654 50.994 70.3027 46.5322C65.9971 36.2198 72.244 23.6775 84.228 18.5733V18.5733ZM67.9047 40.7559C68.2111 46.3164 70.9117 51.3896 75.5445 54.8375C69.6144 58.6335 63.9741 62.688 58.762 66.9041C55.6802 63.3582 52.6562 59.6148 49.7617 55.7633C55.4839 50.291 61.582 45.2496 67.9047 40.7559V40.7559ZM5.60475 44.6518C0.829869 34.8424 -0.364318 19.8687 2.88544 10.5623C7.32004 -2.13705 18.2753 -0.877157 29.278 6.93114C36.1859 11.8337 42.4611 18.9558 45.655 25.5173C51.7801 38.101 48.2154 52.9521 36.952 58.3357C25.6234 63.7505 11.6796 57.1319 5.60475 44.6518ZM40.0487 104.934C35.5153 114.557 21.6543 126.632 13.5509 122.752C9.95922 121.032 7.67715 116.046 7.2904 109.074C6.93916 102.742 8.17075 95.731 10.5049 90.7761C14.0308 83.287 21.2478 78.5624 28.3039 78.9999C24.8509 83.9323 23.1223 87.0985 23.1044 87.1316C23.0694 87.1962 23.048 87.2676 23.0416 87.3405C22.5875 92.6148 23.4604 95.9565 25.6359 97.2724C26.3704 97.7169 27.172 97.882 27.958 97.882C30.1787 97.882 32.277 96.563 32.395 96.4877C32.4567 96.4482 32.5099 96.3964 32.5508 96.3355C34.7567 93.0515 37.2557 89.7636 39.9792 86.5501C42.8962 91.8282 42.94 98.796 40.0487 104.934V104.934ZM31.7302 95.6416C31.1779 95.9666 28.2201 97.5898 26.1864 96.3568C24.4294 95.2917 23.7075 92.2454 24.0966 87.5451C27.1987 81.9782 32.4811 74.8775 36.5842 69.9154C39.3705 73.0444 42.3121 76.1216 45.3423 79.0768C40.2808 84.2633 35.683 89.7727 31.7302 95.6416V95.6416ZM46.4702 78.6855C46.4563 78.6577 38.7963 71.5035 30.6621 61.1859C36.6494 60.5788 42.1262 57.4142 45.7034 52.0301C58.1741 69.5163 74.1355 86.4764 92.6856 97.6525C93.0596 98.2185 95.0329 101.4 93.7797 103.724C92.7035 105.72 89.4001 106.685 84.2224 106.517C82.7529 105.79 65.3392 96.9741 46.4702 78.6855ZM123.285 116.059C121.598 120.091 116.267 122.867 108.66 123.676C101.76 124.408 94.0318 123.449 88.4888 121.172C80.0637 117.709 74.4822 110.018 74.6259 102.24C80.2398 105.771 83.779 107.491 83.8586 107.529C83.9251 107.561 83.9973 107.579 84.0707 107.581C87.7083 107.71 93.0072 107.415 94.7214 104.228C96.4074 101.095 93.6159 97.1138 93.4963 96.9458C93.4538 96.886 93.3993 96.8357 93.3363 96.7978C89.5838 94.5422 85.8616 92.0013 82.1799 89.1853C87.8026 85.6674 95.4552 85.2208 102.353 88.0539C113.244 92.5304 127.076 107.002 123.285 116.059V116.059Z" fill="black"/>
<path d="M102.79 92.2148C102.549 92.3849 102.492 92.7183 102.662 92.9592C102.701 93.0153 106.594 98.6358 104.802 104.817C103.46 109.447 99.3222 113.226 92.5029 116.048C92.2302 116.161 92.1007 116.474 92.2137 116.746C92.3256 117.016 92.6362 117.149 92.9116 117.035C100.046 114.083 104.392 110.072 105.828 105.115C107.762 98.4445 103.709 92.5892 103.535 92.3435C103.365 92.1029 103.032 92.0446 102.79 92.2148V92.2148Z" fill="black"/>
</g>
<defs>
<clipPath id="clip0_1479_3078">
<rect width="125" height="125" fill="white"/>
</clipPath>
</defs>
</svg>
