<svg width="125" height="125" viewBox="0 0 125 125" fill="none" xmlns="http://www.w3.org/2000/svg">
<g clip-path="url(#clip0_1479_3023)">
<path d="M121.242 52.2052V83.6517C121.242 99.4388 111.478 113.678 96.5806 119.319C87.4157 122.79 75.9875 124.466 62.5003 124.466C48.4762 124.466 36.7862 122.654 27.5171 118.894C13.0894 113.043 3.75812 99.0226 3.75812 83.5897V52.2052H121.242Z" fill="#52528C"/>
<path d="M121.242 52.2052V77.4834C115.114 85.6527 91.1431 91.7468 62.5086 91.7468C33.8532 91.7468 9.86956 85.6444 3.75812 77.4668V52.205H121.242V52.2052Z" fill="#404077"/>
<path d="M62.5008 70.587C94.9428 70.587 121.242 62.3568 121.242 52.2043C121.242 42.0519 94.9428 33.8217 62.5008 33.8217C30.0589 33.8217 3.75946 42.0519 3.75946 52.2043C3.75946 62.3568 30.0589 70.587 62.5008 70.587Z" fill="#EDE3E7"/>
<path d="M106.249 47.2493C104.898 52.4982 97.9525 56.4462 88.5472 59.0212C54.8473 65.7874 34.1935 57.6509 34.1935 57.6509C24.9832 54.2986 18.5723 48.9321 18.2064 41.2925C17.6409 29.4494 33.6173 24.9263 45.3618 22.9947L81.0624 21.7179C81.0624 21.7179 89.7893 23.4702 97.079 28.1181C103.354 32.1115 108.568 38.2473 106.249 47.2493Z" fill="#FBF5F7"/>
<path d="M97.079 28.1181C94.6695 35.5708 86.4342 50.8287 59.3829 50.8287C35.1712 50.8287 30.5954 36.3801 30.1733 27.0282C34.8346 25.0938 40.341 23.8204 45.3618 22.9947L81.0624 21.7179C81.0624 21.7179 89.7892 23.4702 97.079 28.1181V28.1181Z" fill="#EDE3E7"/>
<path d="M73.382 40.6392C89.4586 35.6061 92.1608 20.2191 68.7741 6.06097C39.5242 -11.6459 49.9226 18.5617 50.732 20.8231C44.9943 26.1238 35.8574 36.654 48.5315 40.7206C48.5315 40.7209 59.7775 44.8733 73.382 40.6392Z" fill="#FBF5F7"/>
<path d="M106.957 39.6209C104.589 29.5005 91.9316 24.3427 85.4886 22.3433C82.8791 15.2801 75.4922 9.5039 69.0508 5.60421C59.9022 0.0660041 53.5915 -1.37671 50.295 1.3172C45.2566 5.43432 49.0107 17.5007 50.1117 20.6703C49.5401 21.2043 48.9607 21.7666 48.3867 22.3511C43.4049 22.5306 38.1204 23.7126 33.4416 25.2461C25.432 27.8711 18.2539 32.2511 17.697 39.7475C8.25747 43.1923 3.25671 47.4809 3.22759 52.1635C3.22118 52.2469 3.22359 51.317 3.22359 83.591C3.22359 99.2555 12.6863 113.457 27.3173 119.389C36.4937 123.112 48.3309 125 62.5002 125C76.164 125 87.6934 123.257 96.7686 119.818C111.844 114.11 121.777 99.7139 121.777 83.6525V52.2044C121.777 47.5127 116.515 43.0499 106.957 39.6209V39.6209ZM120.708 83.6525C120.708 99.1791 110.936 113.311 96.3901 118.819C87.4362 122.211 76.0339 123.932 62.5 123.932C48.469 123.932 36.7669 122.07 27.7188 118.398C13.4874 112.629 4.2918 98.9662 4.2918 83.591V78.9132C11.89 86.8403 35.313 92.2805 62.508 92.2805C89.6813 92.2805 113.099 86.8462 120.708 78.9285V83.6525H120.708ZM120.708 77.2996C114.433 85.3693 90.0331 91.212 62.5083 91.212C34.958 91.212 10.5518 85.3618 4.29207 77.2814V55.8447C6.51851 59.5975 12.1887 63.0166 20.8052 65.7132C43.8601 72.9284 81.13 72.9316 104.197 65.7132C112.811 63.0177 118.48 59.6002 120.709 55.8493V77.2996H120.708ZM103.877 64.6936C81.028 71.8439 43.9829 71.8474 21.1241 64.6936C10.4286 61.3463 4.29474 56.7943 4.29474 52.2044C4.29474 48.1164 9.03639 44.1147 17.6668 40.8967C17.8097 49.7541 25.7103 55.1318 34.0108 58.1529C34.2889 58.2542 34.595 58.1099 34.6954 57.8337C34.7964 57.5564 34.6535 57.2498 34.3762 57.1491C27.4698 54.6352 19.1506 49.8393 18.7401 41.2672C18.3669 33.4526 25.608 28.9209 33.8609 26.2334C42.4686 23.4302 47.3062 23.4628 47.3329 23.4585C40.4364 30.9368 38.644 38.1095 48.3685 41.2298C48.6493 41.3198 48.9503 41.1654 49.0403 40.8844C49.1303 40.6034 48.9757 40.3026 48.6949 40.2126C45.2616 39.111 43.2775 37.4524 42.7977 35.2826C41.7749 30.6582 47.5565 24.4851 51.0942 21.2166C51.5168 20.794 53.5637 19.0104 54.7551 18.1049C54.9904 17.9267 55.0366 17.5918 54.8587 17.3564C54.6806 17.1214 54.3459 17.0749 54.1103 17.2528C54.0496 17.2987 52.741 18.2932 50.9727 19.8829C49.1218 14.3756 47.2645 5.17388 50.9713 2.145C53.8803 -0.232102 59.7772 1.23946 68.4979 6.51856C80.0089 13.4875 86.1233 21.5123 85.273 28.5357C84.6475 33.7021 80.2555 37.9279 73.2227 40.1298C72.9412 40.2179 72.7844 40.5176 72.8725 40.7992C72.9607 41.0807 73.2601 41.2378 73.5419 41.1494C82.2362 38.4274 88.2846 32.1426 85.8928 23.5929C97.8541 27.4648 108.856 34.9874 105.732 47.1163C104.525 51.8032 98.3737 55.8479 88.4098 58.5052C88.1248 58.5814 87.9552 58.8741 88.0313 59.1592C88.1075 59.4442 88.4002 59.6138 88.6852 59.5377C99.038 56.7764 105.46 52.4595 106.767 47.3826C107.378 45.0119 107.479 42.836 107.188 40.8403C115.917 44.0687 120.709 48.0881 120.709 52.2044C120.708 56.7941 114.574 61.3463 103.877 64.6936V64.6936Z" fill="black"/>
</g>
<defs>
<clipPath id="clip0_1479_3023">
<rect width="125" height="125" fill="white"/>
</clipPath>
</defs>
</svg>
