<svg width="125" height="125" viewBox="0 0 125 125" fill="none" xmlns="http://www.w3.org/2000/svg">
<g clip-path="url(#clip0_1479_3053)">
<path d="M70.602 30.8396L62.9985 116.586C62.9985 116.586 43.1202 134.309 17.5324 116.586L9.92899 30.8396H70.602Z" fill="#7373D7"/>
<path d="M40.2653 42.1371C57.0197 42.1371 70.6017 37.079 70.6017 30.8395C70.6017 24.6001 57.0197 19.542 40.2653 19.542C23.511 19.542 9.92899 24.6001 9.92899 30.8395C9.92899 37.079 23.511 42.1371 40.2653 42.1371Z" fill="#9292FF"/>
<path d="M18.0103 54.2209L23.0048 110.4C42.433 123.857 57.5262 110.4 57.5262 110.4L62.498 54.3943L18.0103 54.2209Z" fill="#52528C"/>
<path d="M40.2653 62.4507C52.5665 62.4507 62.5386 58.6103 62.5386 53.873C62.5386 49.1356 52.5665 45.2952 40.2653 45.2952C27.9642 45.2952 17.9921 49.1356 17.9921 53.873C17.9921 58.6103 27.9642 62.4507 40.2653 62.4507Z" fill="#404077"/>
<path d="M20.2816 26.716C20.2816 30.8262 29.2287 34.1581 40.2656 34.1581C51.3025 34.1581 60.2496 30.8262 60.2496 26.716V7.97632H20.2816V26.716Z" fill="#7373D7"/>
<path d="M40.2654 15.4184C51.3022 15.4184 60.2494 12.0865 60.2494 7.97631C60.2494 3.86614 51.3022 0.53418 40.2654 0.53418C29.2285 0.53418 20.2813 3.86614 20.2813 7.97631C20.2813 12.0865 29.2285 15.4184 40.2654 15.4184Z" fill="#9292FF"/>
<path d="M75.3372 84.2715L78.5171 114.104C79.0313 118.928 82.6564 122.861 87.4333 123.706C91.6258 124.447 97.0714 124.869 102.869 123.892C107.677 123.083 111.333 119.126 111.85 114.278L115.049 84.2699L75.3372 84.2715Z" fill="#52528C"/>
<path d="M95.1927 91.3515C106.169 91.3515 115.067 88.0378 115.067 83.9502C115.067 79.8626 106.169 76.549 95.1927 76.549C84.2166 76.549 75.3187 79.8626 75.3187 83.9502C75.3187 88.0378 84.2166 91.3515 95.1927 91.3515Z" fill="#404077"/>
<path d="M100.291 82.4008V17.5017H89.8328V82.4008C89.8328 82.4008 94.4318 85.8871 100.291 82.4008V82.4008Z" fill="#7373D7"/>
<path d="M94.9358 34.9404C85.2058 34.9404 85.3687 16.076 85.3687 16.076C87.4707 0.921463 103.552 -4.025 104.829 5.14679C106.103 14.3213 104.666 34.9404 94.9358 34.9404Z" fill="#9292FF"/>
<path d="M93.6538 23.4663C85.9804 23.4663 85.3687 16.076 85.3687 16.076C87.4707 0.921463 103.552 -4.025 104.829 5.14679C105.237 12.2166 101.327 23.4663 93.6538 23.4663Z" fill="#7373D7"/>
<path d="M40.2656 44.7612C27.4769 44.7612 17.459 48.7641 17.459 53.8743C17.459 56.5168 22.2658 108.134 22.4717 110.448C22.4858 110.606 22.5692 110.75 22.6998 110.84C30.3297 116.124 38.9825 118.324 47.6906 115.962C53.9418 114.267 57.7225 110.94 57.8803 110.799C57.9818 110.709 58.0448 110.583 58.0569 110.448C58.0878 110.099 63.0722 54.0212 63.0722 53.8743C63.0722 48.7641 53.0543 44.7612 40.2656 44.7612V44.7612ZM57.012 110.135C56.246 110.766 52.7282 113.489 47.4107 114.931C41.9004 116.425 33.2968 116.79 23.5133 110.103C18.1777 50.0843 18.5273 54.0882 18.5273 53.8743C18.5273 49.5135 28.4822 45.8296 40.2656 45.8296C52.049 45.8296 62.0039 49.5135 62.0039 53.8743C62.0039 56.441 57.0147 110.107 57.012 110.135Z" fill="black"/>
<path d="M52.8163 60.4078C44.367 62.6673 33.215 62.3201 25.8135 59.8375C25.5341 59.7438 25.231 59.8944 25.1372 60.1741C25.0432 60.4537 25.1941 60.7566 25.4738 60.8503C33.2057 63.4438 44.581 63.7162 53.0925 61.4401C53.3775 61.364 53.5468 61.071 53.4707 60.786C53.3941 60.5007 53.1003 60.3317 52.8163 60.4078V60.4078Z" fill="black"/>
<path d="M18.6841 39.3506C30.3735 43.6822 48.6022 43.7039 60.415 39.8487C60.6954 39.7571 60.8487 39.4556 60.7571 39.1751C60.6655 38.8947 60.3637 38.7411 60.0835 38.833C48.3867 42.6502 30.4176 42.5591 19.0554 38.3487C18.7792 38.2462 18.4713 38.3875 18.369 38.6642C18.2661 38.9406 18.4074 39.248 18.6841 39.3506V39.3506Z" fill="black"/>
<path d="M60.7833 21.9549C60.7833 21.0735 60.7836 7.08317 60.7836 7.97604C60.7836 3.50366 51.7709 0 40.2656 0C28.76 0 19.7474 3.50366 19.7474 7.97631C19.7474 8.99124 19.7479 3.63346 19.7479 21.9551C13.0694 24.2054 9.39561 27.353 9.39561 30.8409C9.39561 30.8839 9.57269 32.8601 17.0017 116.634C17.0156 116.792 17.0992 116.935 17.2298 117.026C27.0616 123.836 38.4163 126.891 50.0007 123.748C58.1957 121.525 63.1465 117.17 63.3532 116.985C63.4547 116.895 63.5177 116.769 63.5297 116.633C70.3725 39.4756 71.1359 30.897 71.1359 30.8406C71.1356 27.3527 67.4618 24.2054 60.7833 21.9549V21.9549ZM40.2656 1.06835C50.8065 1.06835 59.7117 4.23067 59.7152 7.97417C59.7157 8.67314 59.7152 3.79478 59.7152 26.7168C59.7152 30.4608 50.8084 33.6237 40.2659 33.6237C29.7234 33.6237 20.8166 30.4606 20.8166 26.7168C20.8166 26.4478 20.8168 7.6769 20.8163 7.97284C20.8216 4.22987 29.7261 1.06835 40.2656 1.06835ZM62.4846 116.322C61.5845 117.071 56.8835 120.774 49.7208 122.717C42.4162 124.699 31.0073 125.181 18.0434 116.289C17.9416 115.143 10.5687 32.0075 10.4642 30.8246C10.4768 27.9352 13.8474 25.1343 19.7474 23.0839V26.7168C19.7474 31.1889 28.7597 34.692 40.2651 34.692C51.7704 34.692 60.7828 31.1889 60.7828 26.7168V23.0839C66.6827 25.1343 70.0534 27.935 70.0659 30.8243L62.4846 116.322Z" fill="black"/>
<path d="M29.1457 14.7112C36.6164 16.5469 46.3405 16.3113 53.1107 14.2368C53.3927 14.1505 53.5514 13.8517 53.4648 13.5696C53.3783 13.2876 53.0799 13.1284 52.7976 13.2155C46.1605 15.2491 36.6327 15.451 29.4005 13.6738C29.1139 13.6036 28.8246 13.7788 28.7544 14.0651C28.6839 14.3514 28.8591 14.6407 29.1457 14.7112V14.7112Z" fill="black"/>
<path d="M100.825 76.3158V32.3743C105.656 26.2985 106.404 12.6079 105.357 5.07389C103.991 -4.75761 87.0404 0.140248 84.8391 16.0031C84.8359 16.0258 84.8343 16.0488 84.834 16.072C84.8297 16.5528 84.7889 27.575 89.2976 32.7912V76.3449C84.2114 76.9245 74.2608 79.2359 74.8062 84.3044C74.8123 84.4027 74.7026 83.3578 77.9867 114.162C78.5233 119.21 82.3696 123.352 87.3404 124.233C92.5478 125.152 97.8252 125.284 102.957 124.418C107.962 123.576 111.837 119.43 112.382 114.335C115.392 86.0738 115.568 84.4166 115.573 84.3717C116.242 79.2009 106.022 76.8788 100.825 76.3158ZM90.3659 33.8379C91.6867 34.9231 93.2198 35.4738 94.9358 35.4738C96.7344 35.4738 98.3511 34.8197 99.7567 33.5321V82.094C95.0344 84.7496 91.2863 82.7152 90.3659 82.1215V33.8379ZM104.299 5.22106C105.564 14.3229 104.067 34.4055 94.9358 34.4055C93.2339 34.4055 91.7388 33.7679 90.4917 32.5107C85.9812 27.9625 85.9021 16.8103 85.9021 16.1145C87.9194 1.75052 103.115 -3.2945 104.299 5.22106V5.22106ZM89.2976 77.4199V82.4019C89.2976 82.5691 89.3758 82.7267 89.5091 82.8277C89.5417 82.8525 91.7356 84.4729 95.0034 84.4729C96.6342 84.4729 98.5335 84.0688 100.564 82.8611C100.726 82.7649 100.825 82.5902 100.825 82.4019V77.39C108.802 78.2778 114.532 81.0016 114.532 83.951C114.532 87.6732 105.675 90.8179 95.1922 90.8179C84.709 90.8179 75.8524 87.6732 75.8524 83.951C75.8524 81.047 81.4716 78.3361 89.2976 77.4199V77.4199ZM111.319 114.222C110.825 118.842 107.314 122.602 102.779 123.365C97.9579 124.178 92.8261 124.116 87.5265 123.181C83.0218 122.383 79.5358 118.627 79.0492 114.049L76.1505 86.8543C82.7398 93.5555 107.639 93.5643 114.235 86.8532L111.319 114.222Z" fill="black"/>
<path d="M101.286 19.6007C101.459 19.3622 101.407 19.0281 101.169 18.8545C100.93 18.6806 100.596 18.7332 100.422 18.9715C99.1053 20.7789 96.862 22.9332 93.6527 22.9332C91.6218 22.9332 89.9324 22.3867 88.6323 21.309C88.405 21.121 88.0684 21.1523 87.8801 21.3795C87.6918 21.6068 87.7236 21.9434 87.9507 22.1317C89.4479 23.3723 91.3664 24.0013 93.653 24.0013C96.5485 24.0018 99.1878 22.48 101.286 19.6007V19.6007Z" fill="black"/>
</g>
<defs>
<clipPath id="clip0_1479_3053">
<rect width="125" height="125" fill="white"/>
</clipPath>
</defs>
</svg>
