<svg width="125" height="125" viewBox="0 0 125 125" fill="none" xmlns="http://www.w3.org/2000/svg">
<g clip-path="url(#clip0_1479_3036)">
<path d="M123.99 54.0699L98.7468 110.55C97.9111 112.418 96.0915 113.653 94.0453 113.736L7.31834 117.279C4.92716 117.376 2.75703 115.885 1.99142 113.615L0.821433 110.154C0.257469 108.477 0.550774 106.652 1.57357 105.253C26.1982 71.4517 22.0135 77.1968 26.0596 71.6385C27.3981 69.7976 27.448 67.2985 26.1405 65.4031L5.19943 35.0375C3.67765 32.8323 3.99521 29.8014 6.02974 27.969L11.6505 22.909C12.4215 22.2162 13.3731 21.7606 14.3949 21.5934L99.4289 7.78549C101.78 7.40269 104.106 8.61041 105.144 10.7563L123.92 49.5194C124.613 50.9509 124.64 52.6169 123.99 54.0699Z" fill="#404077"/>
<path d="M116.165 51.7785L26.8873 77.1299C26.8873 77.1299 25.7442 76.1918 23.9057 74.5985C24.0267 74.4306 23.8059 74.7347 26.0596 71.6385C27.4075 69.7865 27.4399 67.2875 26.1405 65.4031L5.19944 35.0375C4.3233 33.7678 4.0618 32.2419 4.36913 30.8293L91.2444 16.5119C93.4361 16.1506 95.6251 17.1723 96.7573 19.081L116.165 51.7785Z" fill="#7373D7"/>
<path d="M116.165 51.7784L94.4335 100.583C93.6005 102.454 91.7782 103.692 89.732 103.778L0.621948 107.479C0.764826 106.687 1.08293 105.924 1.57357 105.253C24.14 74.2772 22.3022 76.8002 26.0596 71.6385C26.7417 70.7003 27.0867 69.5978 27.0921 68.4925L116.165 51.7784Z" fill="#52528C"/>
<path d="M50.5568 75.0336L38.3795 98.6832C37.9463 99.5245 37.1036 100.077 36.1595 100.139L18.9557 101.269C16.6626 101.42 15.2446 98.8164 16.6149 96.9716L33.5139 74.223C33.932 73.6601 34.5528 73.2824 35.2448 73.1697L47.7267 71.1387C49.9114 70.7831 51.5699 73.066 50.5568 75.0336Z" fill="#FFEBD4"/>
<path d="M76.6056 70.5187L66.9929 96.512C66.6238 97.5098 65.7026 98.1972 64.6413 98.267L48.5012 99.3284C46.4478 99.4634 45.0063 97.3407 45.8892 95.482C58.3865 69.1673 58.2393 69.4258 58.2665 69.4258L73.644 66.9233C75.6828 66.5909 77.3221 68.5812 76.6056 70.5187Z" fill="#FFC7A1"/>
<path d="M100.116 66.8284L87.6609 95.2967C87.2573 96.2195 86.3728 96.8401 85.3678 96.9061L75.3472 97.5647C73.4022 97.6925 71.9685 95.7776 72.639 93.9472L82.5628 66.8618C82.8979 65.9474 83.7002 65.2848 84.6612 65.1284L97.2127 63.0869C99.3213 62.7442 100.972 64.872 100.116 66.8284Z" fill="#F0B48F"/>
<path d="M124.406 49.2844L105.63 10.5218C104.496 8.17914 101.91 6.83555 99.3426 7.2534L14.3081 21.0616C13.182 21.2457 12.1385 21.7461 11.2901 22.5085L5.66905 27.5688C3.41292 29.6003 3.09724 32.9402 4.75571 35.3438L25.6968 65.7097C26.8665 67.4053 26.8377 69.652 25.6237 71.3216L1.13847 104.935C0.00379747 106.487 -0.303525 108.5 0.310851 110.326L1.48056 113.787C2.30737 116.239 4.69505 117.923 7.34045 117.818L94.0674 114.275C96.3314 114.183 98.3131 112.84 99.2391 110.77L124.483 54.2902C125.198 52.6894 125.17 50.8649 124.406 49.2844ZM123.498 53.85C123.498 53.8769 123.223 54.4663 98.2543 110.33C97.4971 112.023 95.8758 113.122 94.0232 113.198L7.29651 116.74C5.15684 116.827 3.1862 115.471 2.50201 113.443L1.33229 109.982C0.815237 108.445 1.10692 106.805 2.00921 105.57C28.2435 69.5596 23.5482 76.0061 26.4956 71.9556C27.1439 71.0638 27.5251 70.03 27.6116 68.9439L115.254 52.4983L93.9405 100.365C93.1856 102.06 91.5644 103.162 89.7094 103.24L23.9669 105.97C23.6693 105.982 23.4382 106.234 23.4504 106.531C23.463 106.833 23.7213 107.063 24.0116 107.048L89.755 104.317C92.0221 104.222 94.0038 102.875 94.9263 100.803C117.621 49.8338 116.682 51.9861 116.699 51.8384C116.711 51.7254 116.695 51.6448 116.65 51.5505C116.613 51.472 117.362 52.7388 97.2213 18.806C95.9658 16.689 93.5854 15.5802 91.1573 15.98L26.9981 26.5538C26.7042 26.6021 26.5053 26.8795 26.5538 27.1733C26.602 27.4671 26.8794 27.6653 27.1733 27.6176L91.332 17.0438C93.2884 16.7227 95.2816 17.6506 96.2934 19.3563L115.307 51.3909L27.5965 67.8493C27.496 66.8648 27.1541 65.9235 26.5842 65.0972L5.64317 34.7316C4.28744 32.7668 4.54301 30.0344 6.39045 28.37L12.0109 23.3102C12.7054 22.6861 13.56 22.2766 14.4814 22.1259C105.661 7.31999 99.6834 8.25597 100.283 8.25597C102.115 8.25597 103.845 9.30869 104.659 10.9917L123.435 49.7545C124.061 51.0477 124.084 52.5404 123.498 53.85Z" fill="black"/>
<path d="M38.8588 98.93L51.0361 75.2804C52.2508 72.9208 50.2602 70.1802 47.6404 70.6064L35.1585 72.6374C34.3234 72.7733 33.5858 73.2224 33.0811 73.9012L16.1822 96.6499C14.5889 98.7947 16.1358 101.814 18.7707 101.814C18.9411 101.814 17.7811 101.886 36.1948 100.677C37.3211 100.603 38.342 99.9336 38.8588 98.93ZM18.9203 100.731C17.0823 100.851 15.9476 98.7736 17.0478 97.2931L33.9468 74.5442C34.2832 74.0916 34.7749 73.7923 35.3316 73.7018C48.9654 71.4834 47.9138 71.6411 48.1771 71.6411C49.7237 71.6411 50.8385 73.3082 50.0772 74.7868L37.8999 98.4364C37.5554 99.1055 36.875 99.5516 36.1239 99.601L18.9203 100.731Z" fill="black"/>
<path d="M48.5368 99.8659L64.6769 98.8046C65.9488 98.7208 67.0565 97.8942 67.4989 96.6986L77.1113 70.7056C77.9705 68.381 76.0055 65.9917 73.5575 66.3904L58.1986 68.89C58.0169 68.9121 57.8568 69.0256 57.777 69.1938L45.4024 95.2499C44.3437 97.4791 46.0707 100.029 48.5368 99.8659ZM46.3764 95.7128L58.6294 69.9125L73.7308 67.4547C75.362 67.1903 76.6733 68.7803 76.0999 70.3314L66.4874 96.3245C66.1925 97.1216 65.4541 97.6726 64.606 97.7284L48.4659 98.7898C46.8185 98.8946 45.6709 97.1984 46.3764 95.7128Z" fill="black"/>
<path d="M75.3831 98.1028L85.4034 97.4442C86.6144 97.3647 87.6687 96.6244 88.155 95.5129L100.61 67.0446C101.638 64.6939 99.6589 62.1434 97.1267 62.555L84.5753 64.5963C83.4233 64.7836 82.4582 65.5808 82.0571 66.6764L72.133 93.7617C71.3286 95.9588 73.0515 98.2567 75.3831 98.1028ZM73.1458 94.133L83.0699 67.0473C83.3373 66.317 83.9808 65.7857 84.7489 65.6606C98.4813 63.4271 97.3995 63.5899 97.6594 63.5899C99.1647 63.5899 100.26 65.1551 99.6222 66.6122L87.1675 95.0805C86.8432 95.8219 86.1402 96.3152 85.333 96.368L75.3127 97.0266C73.7586 97.1326 72.6096 95.5965 73.1458 94.133Z" fill="black"/>
</g>
<defs>
<clipPath id="clip0_1479_3036">
<rect width="125" height="125" fill="white"/>
</clipPath>
</defs>
</svg>
