<svg width="7" height="11" viewBox="0 0 7 11" fill="none" xmlns="http://www.w3.org/2000/svg">
<path d="M0.123698 5.79036C0.0412326 5.7079 0 5.61024 0 5.4974C0 5.38455 0.0412326 5.28689 0.123698 5.20443L4.95443 0.373698C5.03689 0.291233 5.13455 0.25 5.2474 0.25C5.36024 0.25 5.4579 0.291233 5.54036 0.373698L6.62109 1.45443C6.70356 1.53689 6.74479 1.63455 6.74479 1.7474C6.74479 1.86024 6.70356 1.9579 6.62109 2.04036L3.16406 5.4974L6.62109 8.95443C6.70356 9.03689 6.74479 9.13455 6.74479 9.2474C6.74479 9.36024 6.70356 9.4579 6.62109 9.54037L5.54036 10.6211C5.4579 10.7036 5.36024 10.7448 5.2474 10.7448C5.13455 10.7448 5.03689 10.7036 4.95443 10.6211L0.123698 5.79036Z" fill="white"/>
</svg>
