<svg width="176" height="48" viewBox="0 0 176 48" fill="none" xmlns="http://www.w3.org/2000/svg">
<circle cx="24" cy="24" r="24" fill="white"/>
<circle cx="88" cy="24" r="24" fill="white"/>
<circle cx="152" cy="24" r="24" fill="white"/>
<path d="M25.1028 31.1628V24.2576H27.4291L27.7749 21.554H25.1028V19.8319C25.1028 19.0517 25.3198 18.5176 26.438 18.5176H27.8548V16.1071C27.1654 16.0332 26.4725 15.9974 25.7792 16.0001C23.7229 16.0001 22.3112 17.2572 22.3112 19.5648V21.5489H20V24.2525H22.3162V31.1628H25.1028Z" fill="#7373D7"/>
<path fill-rule="evenodd" clip-rule="evenodd" d="M97.4062 20.3959C96.791 20.6751 96.1757 20.7681 95.458 20.8612C96.1757 20.489 96.6884 19.9306 96.8935 19.1861C96.2783 19.5584 95.5605 19.7445 94.7402 19.9306C94.125 19.3722 93.2021 19 92.2793 19C90.5361 19 88.998 20.3959 88.998 22.071C88.998 22.3501 88.998 22.5363 89.1006 22.7224C86.332 22.6293 83.7685 21.4196 82.1279 19.5584C81.8203 20.0237 81.7178 20.489 81.7178 21.1404C81.7178 22.164 82.333 23.0946 83.2559 23.653C82.7432 23.653 82.2305 23.4669 81.7178 23.2807C81.7178 24.7697 82.8457 25.9795 84.3838 26.2587C84.0762 26.3517 83.7685 26.3517 83.4609 26.3517C83.2559 26.3517 83.0508 26.3517 82.8457 26.2587C83.2559 27.4684 84.4863 28.399 86.0244 28.399C84.8965 29.2366 83.4609 29.7019 81.8203 29.7019C81.5127 29.7019 81.3076 29.7019 81 29.7019C82.5381 30.5394 84.2812 31.0978 86.1269 31.0978C92.2793 31.0978 95.663 26.4448 95.663 22.4432C95.663 22.3501 95.663 22.164 95.663 22.071C96.3808 21.6057 96.996 21.0473 97.4062 20.3959Z" fill="#7373D7"/>
<path d="M152 17.4413C149.864 17.4413 149.611 17.4493 148.767 17.488C147.857 17.5293 147.012 17.712 146.362 18.362C145.712 19.012 145.529 19.8567 145.488 20.7673C145.449 21.6107 145.441 21.864 145.441 24C145.441 26.136 145.449 26.3893 145.488 27.2327C145.529 28.1433 145.712 28.988 146.362 29.638C147.012 30.288 147.857 30.4707 148.767 30.512C149.611 30.5507 149.864 30.5587 152 30.5587C154.136 30.5587 154.389 30.5507 155.233 30.512C156.143 30.4707 156.988 30.288 157.638 29.638C158.288 28.988 158.471 28.1433 158.512 27.2327C158.551 26.3893 158.559 26.136 158.559 24C158.559 21.864 158.551 21.6107 158.512 20.7673C158.471 19.8567 158.288 19.012 157.638 18.362C156.988 17.712 156.143 17.5293 155.233 17.488C154.389 17.4493 154.136 17.4413 152 17.4413ZM152 16C154.173 16 154.445 16.0093 155.299 16.048C156.599 16.1073 157.741 16.426 158.657 17.3427C159.574 18.2593 159.893 19.4013 159.952 20.7013C159.991 21.5547 160 21.8273 160 24C160 26.1727 159.991 26.4453 159.952 27.2987C159.893 28.5987 159.574 29.7407 158.657 30.6573C157.741 31.574 156.599 31.8927 155.299 31.952C154.445 31.9907 154.173 32 152 32C149.827 32 149.555 31.9907 148.701 31.952C147.401 31.8927 146.259 31.574 145.343 30.6573C144.426 29.7407 144.107 28.5987 144.048 27.2987C144.009 26.4453 144 26.1727 144 24C144 21.8273 144.009 21.5547 144.048 20.7013C144.107 19.4013 144.426 18.2593 145.343 17.3427C146.259 16.426 147.401 16.1073 148.701 16.048C149.555 16.0093 149.827 16 152 16ZM152 19.892C154.269 19.892 156.108 21.7313 156.108 24C156.108 26.2687 154.269 28.108 152 28.108C149.731 28.108 147.892 26.2687 147.892 24C147.892 21.7313 149.731 19.892 152 19.892ZM152 26.6667C153.473 26.6667 154.667 25.4727 154.667 24C154.667 22.5273 153.473 21.3333 152 21.3333C150.527 21.3333 149.333 22.5273 149.333 24C149.333 25.4727 150.527 26.6667 152 26.6667ZM156.271 20.6893C155.74 20.6893 155.311 20.2595 155.311 19.7293C155.311 19.1991 155.74 18.7693 156.271 18.7693C156.801 18.7693 157.231 19.1991 157.231 19.7293C157.231 20.2595 156.801 20.6893 156.271 20.6893Z" fill="#7373D7"/>
</svg>
